# xmcd CD database file
#
# Track frame offsets:
#	150
#	21728
#	45933
#	63825
#	81265
#	99520
#	122603
#	136548
#	159923
#	194198
#	214098
#	237433
#	260460
#	279742
#	303188
#
# Disc length: 4432 seconds
#
# Revision: 1
# Processed by: cddbd v1.5.2PL0 Copyright (c) Steve Scherf et al.
# Submitted via: CDex 1.51
#
DISCID=ce114e0f
DTITLE=Steve Earle and The Dukes - Down At The Club: Cotton Club, Atlanta, GA 1988, FM Radio Broadcast
DYEAR=2014
DGENRE=Country
TTITLE0=Copperhead Road
TTITLE1=Good Ol' Boy
TTITLE2=The Rain Came Down
TTITLE3=San Antonio Girl
TTITLE4=Even When I'm Blue
TTITLE5=Someday
TTITLE6=The Devil's Right Hand
TTITLE7=Johnny Come Lately
TTITLE8=Nothing But A Child
TTITLE9=The Week Of Living Dangerously
TTITLE10=Waiting On You
TTITLE11=You Belong To Me
TTITLE12=No. 29
TTITLE13=My Baby Worships Me
TTITLE14=It's All Up To You
EXTD=YEAR: 2014
EXTT0=
EXTT1=
EXTT2=
EXTT3=
EXTT4=
EXTT5=
EXTT6=
EXTT7=
EXTT8=
EXTT9=
EXTT10=
EXTT11=
EXTT12=
EXTT13=
EXTT14=
PLAYORDER=
